HIERARCHY
ROOT Hips
{
  OFFSET 0 89.5177 0.535
  CHANNELS 6 Xposition Yposition Zposition Zrotation Xrotation Yrotation
  JOINT Spine
  {
    OFFSET 12.0259 -0.162855 1.69034e-005
    CHANNELS 3 Zrotation Xrotation Yrotation
    JOINT Spine1
    {
      OFFSET 15.3169 -0.0121922 0
      CHANNELS 3 Zrotation Xrotation Yrotation
      JOINT Spine2
      {
        OFFSET 15.3176 -0.0121908 0
        CHANNELS 3 Zrotation Xrotation Yrotation
        JOINT Neck
        {
          OFFSET 19.9142 1.56338 0
          CHANNELS 3 Zrotation Xrotation Yrotation
          JOINT Head
          {
            OFFSET 6.92651 0 0
            CHANNELS 3 Zrotation Xrotation Yrotation
            End Site
            {
              OFFSET 20.7666 0 0
            }
          }
          JOINT LeftShoulder
          {
            OFFSET -6.20654 0.708824 7.28219
            CHANNELS 3 Zrotation Xrotation Yrotation
            JOINT LeftArm
            {
              OFFSET 14.108 0 -1.52588e-005
              CHANNELS 3 Zrotation Xrotation Yrotation
              JOINT LeftForeArm
              {
                OFFSET 28.5802 0 0
                CHANNELS 3 Zrotation Xrotation Yrotation
                JOINT LeftHand
                {
                  OFFSET 27.092 0 0
                  CHANNELS 3 Zrotation Xrotation Yrotation
                  End Site
                  {
                    OFFSET 9.55928 -0.186424 0.145352
                  }
                }
              }
            }
          }
          JOINT RightShoulder
          {
            OFFSET -6.20654 0.708866 -7.28218
            CHANNELS 3 Zrotation Xrotation Yrotation
            JOINT RightArm
            {
              OFFSET 14.108 0 1.52588e-005
              CHANNELS 3 Zrotation Xrotation Yrotation
              JOINT RightForeArm
              {
                OFFSET 28.5802 0 0
                CHANNELS 3 Zrotation Xrotation Yrotation
                JOINT RightHand
                {
                  OFFSET 27.092 0 0
                  CHANNELS 3 Zrotation Xrotation Yrotation
                  End Site
                  {
                    OFFSET 9.55929 -0.186417 -0.145354
                  }
                }
              }
            }
          }
        }
      }
    }
  }
  JOINT LeftUpLeg
  {
    OFFSET 0.005 -0.535 8.837
    CHANNELS 3 Zrotation Xrotation Yrotation
    JOINT LeftLeg
    {
      OFFSET 39.9035 0 0
      CHANNELS 3 Zrotation Xrotation Yrotation
      JOINT LeftFoot
      {
        OFFSET 39.6689 0 0
        CHANNELS 3 Zrotation Xrotation Yrotation
        JOINT LeftToe
        {
          OFFSET 10.1624 13.6296 0
          CHANNELS 3 Zrotation Xrotation Yrotation
          End Site
          {
            OFFSET 8.38147 0 0
          }
        }
      }
    }
  }
  JOINT RightUpLeg
  {
    OFFSET 0.005 -0.535 -8.837
    CHANNELS 3 Zrotation Xrotation Yrotation
    JOINT RightLeg
    {
      OFFSET 39.9035 0 0
      CHANNELS 3 Zrotation Xrotation Yrotation
      JOINT RightFoot
      {
        OFFSET 39.6689 0 0
        CHANNELS 3 Zrotation Xrotation Yrotation
        JOINT RightToe
        {
          OFFSET 10.1624 13.6296 0
          CHANNELS 3 Zrotation Xrotation Yrotation
          End Site
          {
            OFFSET 8.38147 0 0
          }
        }
      }
    }
  }
}
MOTION
Frames:	11
Frame Time:	0.0333333
202.28 89.3554 -98.1844 19.8965 -83.147 -65.8474 1.6938 -0.914743 -1.09728 3.37043 -1.86088 -2.16732 3.37043 -1.86088 -2.16733 -8.30708e-012 -9.0191e-006 -5.27751e-005 15.5178 -7.16847 9.13931 -178.705 -8.98465 -81.7663 -9.04114 -35.856 11.2591 -17.7588 3.18055e-015 -3.18055e-015 -62.6168 -29.2426 -48.8365 -179.979 9.56754 89.8712 24.7931 69.5096 -51.7466 -7.41463 -3.18055e-015 1.59028e-015 -55.241 22.6873 43.1947 5.79007 6.26721 178.43 -11.8532 1.59028e-015 -0 10.0596 5.87719 -10.7447 90 2.48791e-015 -0 4.09272 -1.8241 175.786 -16.1354 1.98785e-016 9.93923e-017 15.0712 -4.07331 1.94911 90 -4.47266e-016 -0 
202.273 89.3545 -98.1879 20.0016 -83.1557 -65.7442 1.6964 -0.917709 -1.09606 3.37561 -1.86683 -2.16474 3.37561 -1.86683 -2.16475 -8.30708e-012 -9.0191e-006 -5.27751e-005 15.5162 -7.21279 9.12563 -178.697 -9.0004 -81.7291 -9.0692 -35.8111 11.2416 -17.7498 6.36111e-015 -0 -62.6628 -29.2711 -48.9274 -179.977 9.56785 89.8642 24.6788 69.4545 -51.6436 -7.41016 0 -3.18055e-015 -55.4068 22.7047 43.4328 5.79039 6.24536 178.42 -11.832 1.59028e-015 3.97569e-016 10.0497 5.8635 -10.6979 90 9.22485e-016 -7.95139e-016 4.09546 -1.82002 175.786 -16.1121 -2.98177e-016 -9.93923e-017 15.0532 -4.06141 1.94029 90 -2.85753e-016 -0 
202.265 89.3537 -98.1859 20.0484 -83.1566 -65.6943 1.70369 -0.916568 -1.09854 3.39015 -1.86672 -2.16795 3.39015 -1.86672 -2.16796 -8.30867e-012 -9.0191e-006 -5.27751e-005 15.5025 -7.25655 9.13736 -178.695 -9.00464 -81.7172 -9.06005 -35.7769 11.2593 -17.7621 0 -7.95139e-015 -62.7231 -29.2519 -48.9794 -179.977 9.59218 89.8623 24.7395 69.4135 -51.7215 -7.43378 0 4.77083e-015 -55.3479 22.7124 43.3869 5.75737 6.26094 178.429 -11.8934 -3.18055e-015 -9.93923e-016 10.0931 5.89563 -10.7997 90 1.86982e-015 -3.97569e-016 4.09553 -1.82192 175.78 -16.1096 3.97569e-016 7.45443e-017 15.0599 -4.05256 1.92793 90 -2.85753e-016 -0 
202.265 89.3527 -98.1828 20.0249 -83.1825 -65.7163 1.70735 -0.913984 -1.1025 3.3973 -1.866 -2.17747 3.3973 -1.866 -2.17748 -8.30708e-012 -9.0191e-006 -5.27751e-005 15.4943 -7.23677 9.16219 -178.691 -9.02069 -81.7081 -9.05174 -35.7837 11.2676 -17.7616 -1.90833e-014 -1.59028e-015 -62.6594 -29.2455 -48.8806 -179.976 9.57498 89.8549 24.9127 69.3912 -51.877 -7.44383 -3.18055e-015 -4.77083e-015 -55.2902 22.6535 43.2749 5.76267 6.22032 178.407 -11.8359 1.59028e-015 3.97569e-016 10.0452 5.84505 -10.6573 90 -1.50952e-015 -3.97569e-016 4.04072 -1.83176 175.774 -16.155 -2.98177e-016 -7.45443e-017 15.0733 -4.07112 1.9491 90 -4.22417e-016 -0 
202.266 89.3518 -98.1793 19.8191 -83.1991 -65.9261 1.71351 -0.911215 -1.10499 3.4097 -1.85786 -2.18247 3.4097 -1.85786 -2.18247 -8.30788e-012 -9.0191e-006 -5.27751e-005 15.481 -7.23621 9.17509 -178.69 -9.02178 -81.702 -9.01517 -35.7531 11.2715 -17.7727 3.18055e-015 -0 -62.6938 -29.2222 -48.9106 -179.97 9.55095 89.8178 24.7476 69.3301 -51.6989 -7.45407 3.18055e-015 -1.59028e-015 -55.4155 22.7049 43.4403 5.74929 6.26284 178.418 -11.8539 3.18055e-015 5.96354e-016 10.0737 5.87483 -10.7383 90 -2.32951e-016 -3.97569e-016 4.02368 -1.81359 175.777 -16.1667 -9.93923e-017 -2.48481e-017 15.0787 -4.06995 1.94265 90 2.60905e-016 -0 
202.267 89.3509 -98.1745 19.6624 -83.2201 -66.092 1.71802 -0.909518 -1.10761 3.4188 -1.8512 -2.18798 3.4188 -1.8512 -2.18799 -8.30788e-012 -9.0191e-006 -5.27751e-005 15.4708 -7.23751 9.19282 -178.687 -9.03477 -81.6982 -9.00594 -35.7171 11.2754 -17.7817 -1.27222e-014 -0 -62.6721 -29.2356 -48.8995 -179.971 9.55479 89.8245 25.1012 69.3566 -52.0526 -7.46823 -3.18055e-015 -4.77083e-015 -55.2719 22.6724 43.2666 5.72276 6.29571 178.426 -11.8817 0 -0 10.0789 5.8659 -10.7059 90 -2.29534e-015 7.95139e-016 4.00022 -1.78637 175.783 -16.178 -1.98785e-016 -4.96962e-017 15.0892 -4.07017 1.93914 90 -4.09993e-016 -7.95139e-016 
202.272 89.35 -98.1697 19.5576 -83.2448 -66.2044 1.72013 -0.908837 -1.11026 3.42331 -1.84748 -2.18987 3.42331 -1.84748 -2.18988 -8.30708e-012 -9.0191e-006 -5.27751e-005 15.4852 -7.23979 9.2123 -178.681 -9.0667 -81.686 -9.01498 -35.5865 11.2824 -17.7952 0 -0 -62.6062 -29.2915 -48.8699 -179.965 9.55931 89.7886 25.0985 69.3628 -52.0794 -7.46454 -6.36111e-015 3.18055e-015 -55.325 22.6916 43.3364 5.69941 6.30501 178.435 -11.89 -3.18055e-015 -1.19271e-015 10.084 5.86181 -10.7022 90 -9.03849e-016 -0 3.97332 -1.77448 175.795 -16.1838 -9.93923e-017 -0 15.0804 -4.07065 1.93577 90 3.72721e-017 -0 
202.279 89.3493 -98.163 19.5726 -83.2651 -66.1937 1.72174 -0.90827 -1.11307 3.42614 -1.8448 -2.19869 3.42614 -1.8448 -2.1987 -8.30748e-012 -9.0191e-006 -5.27751e-005 15.5072 -7.24123 9.2273 -178.685 -9.04931 -81.6944 -8.9958 -35.4649 11.2951 -17.8243 6.36111e-015 -6.36111e-015 -62.5668 -29.28 -48.8069 -179.963 9.57426 89.7787 25.2185 69.346 -52.2241 -7.4448 3.18055e-015 -3.18055e-015 -55.3886 22.6483 43.3567 5.6855 6.30472 178.436 -11.8716 -1.59028e-015 -1.98785e-016 10.0767 5.84901 -10.6614 90 -3.18055e-015 3.97569e-016 3.95157 -1.75312 175.803 -16.179 -3.97569e-016 -9.93923e-017 15.059 -4.07111 1.93387 90 -3.60297e-016 -0 
202.289 89.3485 -98.1598 19.5799 -83.2857 -66.1862 1.72234 -0.907807 -1.11673 3.42745 -1.84403 -2.206 3.42745 -1.84403 -2.20601 -8.30748e-012 -9.0191e-006 -5.27751e-005 15.5111 -7.20778 9.24085 -178.679 -9.06519 -81.6737 -9.04532 -35.3934 11.2611 -17.8291 9.54166e-015 -1.59028e-015 -62.5071 -29.3069 -48.7455 -179.96 9.56344 89.7598 25.2695 69.3199 -52.2747 -7.45258 3.18055e-015 6.36111e-015 -55.4287 22.6526 43.3784 5.64773 6.31949 178.457 -11.8972 1.59028e-015 1.98785e-016 10.0888 5.87142 -10.7497 90 6.95746e-016 -1.19271e-015 3.91368 -1.75214 175.816 -16.2059 -1.98785e-016 -4.96962e-017 15.0624 -4.07132 1.93444 90 -9.93923e-017 -7.95139e-016 
202.296 89.3477 -98.1673 19.5844 -83.318 -66.1813 1.71705 -0.907436 -1.12313 3.41682 -1.84026 -2.21898 3.41682 -1.84026 -2.21899 -8.30867e-012 -9.0191e-006 -5.27751e-005 15.5439 -7.21297 9.24696 -178.674 -9.09065 -81.6672 -9.11118 -35.4183 11.2425 -17.8029 9.54166e-015 3.18055e-015 -62.5672 -29.2615 -48.8155 -179.963 9.56906 89.7772 25.4877 69.3085 -52.4928 -7.43708 -6.36111e-015 -3.18055e-015 -55.2143 22.7132 43.2184 5.63306 6.36161 178.453 -11.8858 -1.59028e-015 3.97569e-016 10.0844 5.87082 -10.7218 90 -1.14922e-016 -3.97569e-016 3.8882 -1.73417 175.816 -16.204 -9.93923e-017 -0 15.074 -4.06052 1.91942 90 7.82715e-016 2.38542e-015 
202.311 89.3467 -98.177 19.6547 -83.365 -66.1113 1.7004 -0.907148 -1.12631 3.38365 -1.83564 -2.22559 3.38365 -1.83564 -2.2256 -8.30708e-012 -9.0191e-006 -5.27751e-005 15.6476 -7.20428 9.22541 -178.662 -9.1657 -81.6548 -9.19424 -35.4909 11.2263 -17.8301 -6.36111e-015 -1.59028e-015 -62.5411 -29.2556 -48.7781 -179.963 9.58942 89.7806 25.4391 69.3066 -52.4851 -7.43823 -6.36111e-015 3.18055e-015 -55.204 22.7999 43.3526 5.59919 6.37387 178.468 -11.8712 0 3.97569e-016 10.0881 5.87665 -10.7528 90 2.15868e-015 -3.97569e-016 3.84439 -1.71796 175.828 -16.2077 0 -0 15.0571 -4.06023 1.92824 90 -6.08778e-016 1.59028e-015 
